<svg id="Layer_1" data-name="Layer 1" xmlns="http://www.w3.org/2000/svg" viewBox="0 0 1426.41 238.87"><defs><style>.cls-1{fill:#f26749;}</style></defs><path class="cls-1" d="M19.19,26.13H40.94v128H19.19ZM33.9,137H69q17.16,0,26.6-7.35T105,108.94V71.28q0-13.38-9.44-20.73T69,43.21H33.9V26.13H68.34q18.66,0,31.88,5.37t20.15,15.67Q127.3,57.46,127.3,72v36.25q0,14.52-6.93,24.82t-20.2,15.66q-13.28,5.37-31.94,5.37H33.9Z"/><path class="cls-1" d="M160.35,26.13H182.1v18H160.35Zm0,36.61H182.1v91.34H160.35Z"/><path class="cls-1" d="M280.29,62.74H303l-41.58,91.34H245L203.42,62.74h22.71L253.21,128Z"/><path class="cls-1" d="M341.28,150.65a35.71,35.71,0,0,1-16.58-14Q319,127.51,319,114.48V104.19q0-13.56,5.49-23.15a35.61,35.61,0,0,1,15.94-14.6q10.45-5,25.16-5,13.86,0,23.67,5.72a37.15,37.15,0,0,1,15,16.54q5.17,10.83,5.17,26v6H334.77V101.19h54q-1-11.16-7-17.37t-16.16-6.21q-12.36,0-19.13,6.69t-6.77,18.92v11.61q0,11.36,7.25,17.43t20.57,6.07a40.64,40.64,0,0,0,13.12-2.2A39.63,39.63,0,0,0,392.24,130l14.28,11.79a64,64,0,0,1-39,13.64Q352.16,155.4,341.28,150.65Z"/><path class="cls-1" d="M460,153.82a76.09,76.09,0,0,1-16-4.76,64.88,64.88,0,0,1-13.76-7.91L443.09,128a77.86,77.86,0,0,0,17.81,8.45,57.36,57.36,0,0,0,17.48,2.82q12.9,0,19.35-3.3t6.45-9.9a7.28,7.28,0,0,0-3.51-6.6,22.36,22.36,0,0,0-8.75-3q-5.22-.75-14.71-1.36c-.57,0-1.17,0-1.81,0s-1.25-.07-1.81-.13a8.25,8.25,0,0,1-.86,0,8.08,8.08,0,0,0-.85,0,102.86,102.86,0,0,1-18.23-2.59,25.36,25.36,0,0,1-12.42-7.09q-5-5.19-5-14.87t4.8-16.1q4.8-6.42,14.28-9.64t23.78-3.21a99,99,0,0,1,16.47,1.32,85.07,85.07,0,0,1,15,3.92,79.38,79.38,0,0,1,13.75,6.55L511.22,86.32a80.64,80.64,0,0,0-16.37-6.6,59.69,59.69,0,0,0-15.72-2.2q-11.08,0-16.63,3.13A10.1,10.1,0,0,0,457,90a6,6,0,0,0,3.15,5.54A20.64,20.64,0,0,0,468,98q4.8.61,13.65,1a9.48,9.48,0,0,0,1.33.09,12.1,12.1,0,0,1,1.44.09h.64a2.35,2.35,0,0,1,.64.09,113,113,0,0,1,19.78,2.55,27.47,27.47,0,0,1,13.7,7.66q5.53,5.72,5.54,16.54,0,9.85-5.12,16.32t-15.4,9.73q-10.29,3.24-25.86,3.25A101.85,101.85,0,0,1,460,153.82Z"/><path class="cls-1" d="M613.25,26.13H635v128H613.25ZM628,137H663q17.16,0,26.6-7.35t9.44-20.72V71.28q0-13.38-9.44-20.73T663,43.21H628V26.13H662.4q18.66,0,31.88,5.37t20.15,15.67q6.93,10.29,6.93,24.81v36.25q0,14.52-6.93,24.82t-20.2,15.66q-13.28,5.37-31.94,5.37H628Z"/><path class="cls-1" d="M754.41,26.13h21.75v18H754.41Zm0,36.61h21.75v91.34H754.41Z"/><path class="cls-1" d="M823.55,151.31a29.74,29.74,0,0,1-13.06-12.72Q806,130.24,806,118.53V98.38q0-11.79,4.37-20.15a29.42,29.42,0,0,1,12.74-12.72q8.37-4.35,20.1-4.35a38.45,38.45,0,0,1,18,4.22,34.46,34.46,0,0,1,13.16,11.88l-2.24,18.66a18.59,18.59,0,0,0-2.55-10,16.25,16.25,0,0,0-7.41-6.29,28.94,28.94,0,0,0-11.79-2.16q-10.75,0-16.68,5.55t-5.92,15.57v19.89q0,9.94,5.92,15.36t16.68,5.41a27.93,27.93,0,0,0,11.79-2.25,16.52,16.52,0,0,0,7.41-6.46,19.23,19.23,0,0,0,2.55-10.12l1.5,19.27a27.48,27.48,0,0,1-10.82,11.35q-7.53,4.57-18.5,4.57Q832.14,155.66,823.55,151.31Zm.43,36.08q-9.87-3.82-15.3-10.78l14.71-11a29.44,29.44,0,0,0,10.18,7.48A30.19,30.19,0,0,0,846,175.73q12.48,0,19.3-5.68T872.11,154V62.74h21.75v88.61q0,12.59-5.59,21.56A35.19,35.19,0,0,1,872,186.55q-10.66,4.66-25.7,4.66A61.37,61.37,0,0,1,824,187.39Z"/><path class="cls-1" d="M926.91,26.13h21.75v18H926.91Zm0,36.61h21.75v91.34H926.91Z"/><path class="cls-1" d="M973.19,62.74h49.89V78.93H973.19Zm17.64,85.66q-6.24-6.1-6.24-18.08V36.17h21.75V130.5a7.56,7.56,0,0,0,1.6,5.15,6,6,0,0,0,4.69,1.8h10.45v17.07H1010.5Q997.06,154.52,990.83,148.4Z"/><path class="cls-1" d="M1057.73,148.4q-10.12-7-10.13-21.25,0-13.55,9.28-20.32t28-6.78h31.45l1.49,14.43H1085q-8.52,0-12.74,3.13t-4.21,9.54q0,7,5.6,10.3t17,3.34q12.46,0,18.6-2.2t6.13-6.86l2.24,12.85a23.65,23.65,0,0,1-7.09,6.07,34.5,34.5,0,0,1-9.76,3.56,59.8,59.8,0,0,1-12.47,1.19Q1067.86,155.4,1057.73,148.4Zm57.68-52.22q0-9-5.81-14t-16.47-5a50.85,50.85,0,0,0-13,1.67,41.85,41.85,0,0,0-11.24,4.67l-15.89-9a42.23,42.23,0,0,1,16.58-9.72,71.06,71.06,0,0,1,22.87-3.48q13.76,0,23.56,4T1131,77q5.12,7.6,5.11,18.35v58.69h-20.68Z"/><path class="cls-1" d="M1190.89,130.5a7.1,7.1,0,0,0,1.76,5.15,6.64,6.64,0,0,0,5,1.8h10.24v17.07h-12.8q-12.36,0-19.14-6.33t-6.77-17.87V26.13h21.75Z"/><path class="cls-1" d="M1315.31,117.83q-14.49-6.43-22.07-18.61t-7.57-29.35q0-17.16,7.57-29.35t22-18.56q14.45-6.39,34.92-6.38T1385.09,22q14.45,6.38,22,18.56t7.57,29.35q0,17.16-7.57,29.35T1385,117.83q-14.51,6.42-34.86,6.42T1315.31,117.83Zm60.13-12.76a35.77,35.77,0,0,0,16.16-13.73q5.6-9,5.59-21.47,0-12.86-5.54-22a35.35,35.35,0,0,0-16.1-13.95q-10.56-4.79-25.37-4.79t-25.38,4.79a35.4,35.4,0,0,0-16.1,13.95q-5.54,9.15-5.54,22,0,12.59,5.54,21.56a35.23,35.23,0,0,0,16.1,13.68q10.56,4.71,25.38,4.71T1375.44,105.07ZM1328.59,91.3q-8.47-7.26-8.48-20.38V67.76q0-13,8.48-20.2t23.93-7.17a40.38,40.38,0,0,1,14,2.29,30.44,30.44,0,0,1,10.82,6.69l-9.91,10.91a30.81,30.81,0,0,0-7.25-4.05,21.4,21.4,0,0,0-7.57-1.32q-6.83,0-10.5,3.39t-3.68,9.46v3.16c0,4.35,1.23,7.7,3.68,10.08s5.95,3.56,10.5,3.56a19.59,19.59,0,0,0,7.84-1.54,36.87,36.87,0,0,0,7.94-5l10,10.83a33.28,33.28,0,0,1-11.35,7.21,40.68,40.68,0,0,1-14.56,2.47Q1337.07,98.56,1328.59,91.3Z"/></svg>