<svg id="Layer_1" data-name="Layer 1" xmlns="http://www.w3.org/2000/svg" viewBox="0 0 1663.83 659.33"><defs><style>.cls-1{fill:#f26749;}</style></defs><path class="cls-1" d="M22.38,41.12H47.75V242.41H22.38ZM39.55,215.55H80.46q20,0,31-11.56t11-32.6V112.14q0-21-11-32.61T80.46,68H39.55V41.12H79.72q21.75,0,37.18,8.44A55.71,55.71,0,0,1,140.4,74.2q8.08,16.2,8.09,39v57q0,22.85-8.09,39A55.62,55.62,0,0,1,116.84,234q-15.48,8.44-37.25,8.45h-40Z"/><path class="cls-1" d="M187,41.12h25.37V69.36H187Zm0,57.59h25.37v143.7H187Z"/><path class="cls-1" d="M327,98.71h26.48l-48.5,143.7H285.78l-48.5-143.7h26.49l31.59,102.58Z"/><path class="cls-1" d="M398.08,237q-12.69-7.48-19.34-21.95t-6.65-34.95v-16.2q0-21.32,6.4-36.41t18.59-23q12.19-7.89,29.35-7.89,16.17,0,27.61,9t17.48,26q6,17,6,40.84v9.41H390.49V159.2h62.93q-1.12-17.58-8.15-27.34a22.08,22.08,0,0,0-18.84-9.76q-14.42,0-22.32,10.52t-7.9,29.77v18.27q0,17.86,8.46,27.41t24,9.56a36.69,36.69,0,0,0,15.3-3.46,43.91,43.91,0,0,0,13.55-9.7L474.19,223a70.14,70.14,0,0,1-21.52,15.86,56.08,56.08,0,0,1-24,5.6Q410.76,244.48,398.08,237Z"/><path class="cls-1" d="M536.56,242a72.84,72.84,0,0,1-18.72-7.47,74.22,74.22,0,0,1-16-12.46l15-20.63a83.15,83.15,0,0,0,20.77,13.29,51.48,51.48,0,0,0,20.4,4.43q15,0,22.57-5.19t7.52-15.58q0-6.91-4.1-10.38a22,22,0,0,0-10.2-4.64q-6.09-1.17-17.16-2.14c-.66,0-1.37,0-2.11-.07s-1.46-.12-2.12-.21a6.59,6.59,0,0,1-1-.07,8.55,8.55,0,0,0-1-.07,91.52,91.52,0,0,1-21.26-4.08,29,29,0,0,1-14.49-11.15q-5.79-8.16-5.78-23.39t5.59-25.34a35.17,35.17,0,0,1,16.67-15.16q11.05-5,27.73-5.05a86.15,86.15,0,0,1,19.21,2.08,79.34,79.34,0,0,1,17.47,6.16,85.06,85.06,0,0,1,16.05,10.31l-15.3,20.63a81.42,81.42,0,0,0-19.09-10.38A52.78,52.78,0,0,0,558.88,122q-12.95,0-19.4,4.92T533,141.62q0,5.82,3.67,8.72a20.06,20.06,0,0,0,9.26,3.88q5.61,1,15.92,1.66a8.79,8.79,0,0,0,1.56.14,11,11,0,0,1,1.68.14h.74a2.21,2.21,0,0,1,.75.14,99.62,99.62,0,0,1,23.07,4,31.2,31.2,0,0,1,16,12.05q6.47,9,6.46,26,0,15.51-6,25.68t-18,15.3q-12,5.12-30.16,5.12A88.6,88.6,0,0,1,536.56,242Z"/><path class="cls-1" d="M715.32,41.12h25.37V242.41H715.32Zm17.17,174.43H773.4q20,0,31-11.56t11-32.6V112.14q0-21-11-32.61T773.4,68H732.49V41.12h40.17q21.75,0,37.18,8.44a55.71,55.71,0,0,1,23.5,24.64q8.08,16.2,8.09,39v57q0,22.85-8.09,39A55.62,55.62,0,0,1,809.78,234q-15.48,8.44-37.25,8.45h-40Z"/><path class="cls-1" d="M880,41.12h25.37V69.36H880Zm0,57.59h25.37v143.7H880Z"/><path class="cls-1" d="M960.63,238.05q-10-6.86-15.24-20t-5.22-31.56V154.77q0-18.54,5.1-31.7t14.86-20q9.76-6.85,23.44-6.86a35.83,35.83,0,0,1,21,6.65q9.51,6.65,15.36,18.69l-2.62,29.35a37.35,37.35,0,0,0-3-15.65,21.77,21.77,0,0,0-8.64-9.89A26.33,26.33,0,0,0,991.9,122q-12.55,0-19.46,8.73t-6.9,24.5v31.29q0,15.65,6.9,24.15t19.46,8.52a25.54,25.54,0,0,0,13.75-3.53,22.53,22.53,0,0,0,8.64-10.18,38.63,38.63,0,0,0,3-15.92l1.74,30.32a40.49,40.49,0,0,1-12.62,17.86q-8.76,7.2-21.58,7.2Q970.64,244.9,960.63,238.05Zm.49,56.76a43.49,43.49,0,0,1-17.84-17l17.16-17.31a37.11,37.11,0,0,0,11.88,11.77,27.66,27.66,0,0,0,14.49,4.15q14.55,0,22.5-8.93t8-25.26V98.71h25.37v139.4q0,19.8-6.53,33.92a47,47,0,0,1-19,21.46q-12.43,7.33-30,7.34A55.41,55.41,0,0,1,961.12,294.81Z"/><path class="cls-1" d="M1081.19,41.12h25.37V69.36h-25.37Zm0,57.59h25.37v143.7h-25.37Z"/><path class="cls-1" d="M1135.17,98.71h58.2v25.47h-58.2Zm20.58,134.77q-7.27-9.63-7.27-28.45V56.9h25.36V205.3c0,3.51.63,6.21,1.87,8.1a6.12,6.12,0,0,0,5.47,2.84h12.19V243.1h-14.68Q1163,243.1,1155.75,233.48Z"/><path class="cls-1" d="M1233.79,233.48Q1222,222.47,1222,200q0-21.31,10.82-32t32.71-10.65h36.69l1.74,22.7h-38.31q-9.94,0-14.86,4.91t-4.91,15q0,11,6.53,16.2t19.83,5.26q14.55,0,21.71-3.46t7.15-10.8l2.61,20.22a31.93,31.93,0,0,1-8.27,9.55,34.3,34.3,0,0,1-11.38,5.6,52.22,52.22,0,0,1-14.55,1.87Q1245.6,244.48,1233.79,233.48Zm67.28-82.17q0-14.12-6.78-21.94t-19.22-7.82a44.92,44.92,0,0,0-15.11,2.63,43.25,43.25,0,0,0-13.12,7.34l-18.53-14.12a49,49,0,0,1,19.34-15.3,63.52,63.52,0,0,1,26.68-5.47q16,0,27.48,6.3a41.42,41.42,0,0,1,17.41,18.27q6,12,6,28.87v92.34h-24.12Z"/><path class="cls-1" d="M1389.11,205.3q0,5.26,2.06,8.1a6.68,6.68,0,0,0,5.78,2.84h11.94V243.1H1394q-14.42,0-22.32-10t-7.9-28.1V41.12h25.37Z"/><path class="cls-1" d="M1534.24,185.37q-16.9-10.11-25.74-29.28t-8.83-46.17q0-27,8.83-46.17t25.68-29.21q16.85-10,40.73-10t40.73,10q16.84,10,25.68,29.21t8.83,46.17q0,27-8.83,46.17t-25.75,29.28q-16.9,10.11-40.66,10.11T1534.24,185.37Zm70.14-20.07a48.17,48.17,0,0,0,18.84-21.6q6.54-14.12,6.53-33.78,0-20.2-6.46-34.61t-18.78-21.94q-12.32-7.54-29.6-7.55t-29.6,7.55q-12.32,7.55-18.78,21.94t-6.46,34.61q0,19.8,6.46,33.92a47.37,47.37,0,0,0,18.78,21.53q12.32,7.4,29.6,7.4T1604.38,165.3Zm-54.65-21.67q-9.9-11.41-9.89-32v-5q0-20.49,9.89-31.77t27.92-11.29a35,35,0,0,1,29,14.12l-11.56,17.17a35.08,35.08,0,0,0-8.46-6.37,19.35,19.35,0,0,0-8.83-2.07q-8,0-12.25,5.33t-4.29,14.88v5q0,10.24,4.29,15.85t12.25,5.61a17.93,17.93,0,0,0,9.14-2.42,43.79,43.79,0,0,0,9.26-7.83l11.69,17a39.19,39.19,0,0,1-13.24,11.35,36.47,36.47,0,0,1-17,3.88Q1559.6,155.05,1549.73,143.63Z"/></svg>